<svg xmlns="http://www.w3.org/2000/svg" width="197" height="45" viewBox="0 0 197 45" fill="none"><path d="M43.7251 10.7876L36.8225 29.227H33.3315L26.4023 10.7876H29.6289L35.077 26.1229L40.5515 10.7876H43.7251ZM45.2415 21.8513C45.2415 20.3832 45.5412 19.0832 46.1407 17.9511C46.7576 16.8191 47.5863 15.9436 48.6268 15.3245C49.6848 14.6878 50.8483 14.3694 52.1177 14.3694C53.2637 14.3694 54.2598 14.5993 55.106 15.0592C55.9703 15.5014 56.658 16.0586 57.169 16.7307V14.6082H60.2105V29.227H57.169V27.0514C56.658 27.7413 55.9615 28.3161 55.0797 28.776C54.1983 29.2359 53.1934 29.4658 52.065 29.4658C50.8132 29.4658 49.6668 29.1474 48.6268 28.5107C47.5863 27.8562 46.7576 26.9541 46.1407 25.8045C45.5412 24.6371 45.2415 23.3194 45.2415 21.8513ZM57.169 21.9044C57.169 20.8961 56.9576 20.0206 56.5345 19.2777C56.129 18.5348 55.5911 17.9689 54.9211 17.5797C54.251 17.1906 53.5282 16.996 52.7527 16.996C51.9767 16.996 51.2539 17.1906 50.5838 17.5797C49.9137 17.9511 49.3671 18.5083 48.944 19.2512C48.5384 19.9764 48.3359 20.8431 48.3359 21.8513C48.3359 22.8595 48.5384 23.7438 48.944 24.5044C49.3671 25.265 49.9137 25.8487 50.5838 26.2555C51.2715 26.6446 51.9943 26.8392 52.7527 26.8392C53.5282 26.8392 54.251 26.6446 54.9211 26.2555C55.5911 25.8664 56.129 25.3004 56.5345 24.5575C56.9576 23.7969 57.169 22.9125 57.169 21.9044ZM67.1855 9.59375V29.227H64.1703V9.59375H67.1855ZM84.3411 14.6082V29.227H81.326V27.5025C80.8501 28.1039 80.224 28.5814 79.448 28.9352C78.6901 29.2712 77.879 29.4393 77.0151 29.4393C75.8692 29.4393 74.8375 29.2005 73.9209 28.7229C73.0215 28.2454 72.3075 27.5378 71.7784 26.6004C71.2674 25.663 71.0117 24.531 71.0117 23.2044V14.6082H74V22.7533C74 24.0622 74.3265 25.0704 74.9785 25.7779C75.631 26.4677 76.5212 26.8127 77.65 26.8127C78.7784 26.8127 79.6686 26.4677 80.3211 25.7779C80.9912 25.0704 81.326 24.0622 81.326 22.7533V14.6082H84.3411ZM101.675 21.5594C101.675 22.1077 101.64 22.603 101.569 23.0452H90.4347C90.523 24.2126 90.9549 25.15 91.7305 25.8575C92.5064 26.565 93.4586 26.9188 94.587 26.9188C96.2087 26.9188 97.3551 26.2378 98.0252 24.8758H101.278C100.837 26.2201 100.035 27.3256 98.8715 28.1923C97.7251 29.0413 96.2971 29.4658 94.587 29.4658C93.1941 29.4658 91.9423 29.1563 90.8315 28.5372C89.7383 27.9004 88.8744 27.0161 88.2395 25.8841C87.6226 24.7343 87.3141 23.4078 87.3141 21.9044C87.3141 20.4009 87.6138 19.0832 88.2131 17.9511C88.83 16.8015 89.6855 15.9171 90.7783 15.298C91.8891 14.6789 93.1589 14.3694 94.587 14.3694C95.9623 14.3694 97.1877 14.6701 98.2629 15.2715C99.3385 15.8729 100.176 16.7218 100.775 17.8185C101.375 18.8974 101.675 20.1444 101.675 21.5594ZM98.5274 20.6043C98.5098 19.49 98.1131 18.5968 97.3376 17.9246C96.5616 17.2525 95.6006 16.9164 94.4547 16.9164C93.4142 16.9164 92.524 17.2525 91.7836 17.9246C91.0428 18.579 90.6021 19.4723 90.4611 20.6043H98.5274Z" fill="black"></path><path d="M123.727 10.5223V29.227H118.543V21.7186H112.223V29.227H107.039V10.5223H112.223V17.5532H118.543V10.5223H123.727ZM140.869 21.6125C140.869 22.0193 140.843 22.4261 140.789 22.8329H130.978C131.031 23.6466 131.251 24.2568 131.639 24.6636C132.045 25.0527 132.556 25.2473 133.173 25.2473C134.037 25.2473 134.654 24.8582 135.024 24.0799H140.552C140.322 25.1058 139.873 26.0256 139.203 26.8392C138.55 27.6351 137.722 28.263 136.717 28.7229C135.712 29.1828 134.601 29.4127 133.384 29.4127C131.921 29.4127 130.616 29.1032 129.47 28.4841C128.342 27.865 127.452 26.9807 126.799 25.831C126.164 24.6813 125.847 23.3282 125.847 21.7717C125.847 20.2152 126.164 18.8709 126.799 17.7389C127.434 16.5892 128.316 15.7048 129.444 15.0857C130.59 14.4667 131.904 14.1572 133.384 14.1572C134.848 14.1572 136.144 14.4578 137.272 15.0592C138.4 15.6606 139.282 16.5273 139.917 17.6593C140.552 18.7736 140.869 20.0914 140.869 21.6125ZM135.58 20.3125C135.58 19.6757 135.368 19.1805 134.945 18.8267C134.521 18.4553 133.993 18.2695 133.358 18.2695C132.723 18.2695 132.203 18.4464 131.798 18.8001C131.392 19.1362 131.128 19.6403 131.004 20.3125H135.58ZM142.144 21.7717C142.144 20.2329 142.417 18.8886 142.964 17.7389C143.528 16.5892 144.286 15.7048 145.238 15.0857C146.208 14.4667 147.283 14.1572 148.465 14.1572C149.487 14.1572 150.369 14.3605 151.11 14.7674C151.85 15.1742 152.423 15.7225 152.829 16.4123V14.3429H158.012V29.227H152.829V27.1576C152.423 27.8474 151.841 28.3957 151.083 28.8025C150.343 29.2093 149.47 29.4127 148.465 29.4127C147.283 29.4127 146.208 29.1032 145.238 28.4841C144.286 27.865 143.528 26.9807 142.964 25.831C142.417 24.6636 142.144 23.3105 142.144 21.7717ZM152.829 21.7717C152.829 20.8166 152.564 20.0648 152.035 19.5165C151.524 18.9682 150.889 18.694 150.131 18.694C149.355 18.694 148.711 18.9682 148.201 19.5165C147.689 20.0472 147.433 20.7988 147.433 21.7717C147.433 22.7268 147.689 23.4874 148.201 24.0534C148.711 24.6017 149.355 24.8758 150.131 24.8758C150.889 24.8758 151.524 24.6017 152.035 24.0534C152.564 23.5051 152.829 22.7445 152.829 21.7717ZM166.15 9.59375V29.227H160.966V9.59375H166.15ZM177.855 24.7963V29.227H175.608C171.817 29.227 169.921 27.3433 169.921 23.5758V18.6675H168.097V14.3429H169.921V10.7346H175.131V14.3429H177.829V18.6675H175.131V23.6554C175.131 24.0622 175.22 24.3541 175.396 24.531C175.59 24.7078 175.907 24.7963 176.348 24.7963H177.855ZM189.992 14.2102C191.685 14.2102 193.024 14.7851 194.012 15.9348C195.017 17.0668 195.519 18.6056 195.519 20.5513V29.227H190.336V21.241C190.336 20.392 190.115 19.7288 189.675 19.2512C189.234 18.7559 188.643 18.5083 187.902 18.5083C187.127 18.5083 186.518 18.7559 186.078 19.2512C185.637 19.7288 185.417 20.392 185.417 21.241V29.227H180.233V9.59375H185.417V16.4654C185.875 15.7933 186.492 15.2538 187.268 14.847C188.062 14.4225 188.969 14.2102 189.992 14.2102Z" fill="black"></path><path d="M12.3839 8.35091C16.4849 12.4256 20.6957 16.6066 24.9718 20.8544C24.292 21.4065 23.7743 22.2209 23.0632 22.6209C19.5375 19.0892 16.077 15.6243 12.6088 12.1503C8.94972 15.863 5.47623 19.3869 1.98316 22.9304C1.19878 22.0636 0.566056 21.3646 0 20.7377C4.03952 16.6971 8.23853 12.4965 12.3852 8.34961L12.3839 8.35091Z" fill="#EC7224"></path><path d="M12.3249 16.7246C15.0519 19.4787 17.8234 22.2787 20.6667 25.1508C20.0967 25.7331 19.481 26.4452 18.6312 27.0852C16.5527 25.0065 14.4963 22.9514 12.338 20.7941C10.2215 22.9108 8.14547 24.9868 6.0538 27.0786C5.17401 26.4583 4.57527 25.7265 3.98438 25.1219C6.81859 22.2682 9.59527 19.4722 12.3249 16.7246Z" fill="#EC7224"></path><path d="M8.35156 29.257C9.72945 27.8839 11.0734 26.5462 12.3532 25.2715C13.5559 26.4925 14.8906 27.8446 16.1796 29.1534C15.6881 29.3894 10.9452 29.4983 8.35156 29.2557V29.257Z" fill="#EC7224"></path><path d="M36.9245 39.8981H34.2066L33.7059 41.2884H32.8477L35.1007 35.0728H36.0394L38.2835 41.2884H37.4252L36.9245 39.8981ZM36.6921 39.2345L35.5656 36.0773L34.4391 39.2345H36.6921ZM39.0508 38.8219C39.0508 38.3136 39.1522 37.8712 39.3548 37.4945C39.5574 37.1118 39.8376 36.8158 40.1952 36.6065C40.5588 36.3972 40.973 36.2926 41.438 36.2926C42.0399 36.2926 42.5346 36.4391 42.9221 36.7321C43.3155 37.0251 43.5747 37.4317 43.6999 37.9519H42.8237C42.7403 37.6529 42.5764 37.4167 42.332 37.2433C42.0936 37.0699 41.7956 36.9832 41.438 36.9832C40.973 36.9832 40.5975 37.1447 40.3115 37.4675C40.0253 37.7844 39.8823 38.2359 39.8823 38.8219C39.8823 39.4138 40.0253 39.8712 40.3115 40.1941C40.5975 40.517 40.973 40.6785 41.438 40.6785C41.7956 40.6785 42.0936 40.5948 42.332 40.4273C42.5704 40.2599 42.7343 40.0208 42.8237 39.7098H43.6999C43.5688 40.2121 43.3065 40.6157 42.9132 40.9206C42.5198 41.2196 42.028 41.3691 41.438 41.3691C40.973 41.3691 40.5588 41.2644 40.1952 41.0552C39.8376 40.8459 39.5574 40.5499 39.3548 40.1672C39.1522 39.7845 39.0508 39.3361 39.0508 38.8219ZM44.5709 38.8219C44.5709 38.3136 44.6722 37.8712 44.8749 37.4945C45.0775 37.1118 45.3577 36.8158 45.7153 36.6065C46.0789 36.3972 46.4931 36.2926 46.9578 36.2926C47.5599 36.2926 48.0547 36.4391 48.4422 36.7321C48.8353 37.0251 49.0947 37.4317 49.2201 37.9519H48.3437C48.2605 37.6529 48.0963 37.4167 47.8522 37.2433C47.6135 37.0699 47.3157 36.9832 46.9578 36.9832C46.4931 36.9832 46.1176 37.1447 45.8315 37.4675C45.5454 37.7844 45.4024 38.2359 45.4024 38.8219C45.4024 39.4138 45.5454 39.8712 45.8315 40.1941C46.1176 40.517 46.4931 40.6785 46.9578 40.6785C47.3157 40.6785 47.6135 40.5948 47.8522 40.4273C48.0903 40.2599 48.2545 40.0208 48.3437 39.7098H49.2201C49.0887 40.2121 48.8265 40.6157 48.433 40.9206C48.0399 41.2196 47.5479 41.3691 46.9578 41.3691C46.4931 41.3691 46.0789 41.2644 45.7153 41.0552C45.3577 40.8459 45.0775 40.5499 44.8749 40.1672C44.6722 39.7845 44.5709 39.3361 44.5709 38.8219ZM54.8651 38.6425C54.8651 38.798 54.8563 38.9624 54.8383 39.1358H50.9223C50.9524 39.6201 51.1161 39.9998 51.4144 40.2748C51.7182 40.5439 52.0849 40.6785 52.514 40.6785C52.8655 40.6785 53.1578 40.5977 53.3899 40.4363C53.6285 40.2689 53.7955 40.0477 53.8907 39.7726H54.7671C54.6357 40.245 54.3735 40.6306 53.98 40.9296C53.5869 41.2226 53.0981 41.3691 52.514 41.3691C52.0488 41.3691 51.6317 41.2644 51.2622 41.0552C50.8987 40.8459 50.6125 40.5499 50.4039 40.1672C50.1954 39.7786 50.0908 39.3301 50.0908 38.8219C50.0908 38.3136 50.1921 37.8682 50.3951 37.4855C50.5977 37.1028 50.8807 36.8098 51.2442 36.6065C51.6137 36.3972 52.0373 36.2926 52.514 36.2926C52.9788 36.2926 53.3899 36.3942 53.7478 36.5976C54.1053 36.8009 54.3795 37.0819 54.57 37.4406C54.767 37.7934 54.8651 38.194 54.8651 38.6425ZM54.0248 38.4721C54.0248 38.1611 53.9564 37.8951 53.819 37.6739C53.6822 37.4466 53.4944 37.2762 53.2558 37.1626C53.0236 37.043 52.7642 36.9832 52.478 36.9832C52.0669 36.9832 51.7154 37.1148 51.4231 37.3779C51.1369 37.641 50.9732 38.0057 50.9316 38.4721H54.0248ZM56.842 34.6512V41.2884H56.0286V34.6512H56.842ZM62.7886 38.6425C62.7886 38.798 62.7793 38.9624 62.7617 39.1358H58.8458C58.8754 39.6201 59.0395 39.9998 59.3374 40.2748C59.6412 40.5439 60.0079 40.6785 60.437 40.6785C60.7885 40.6785 61.0808 40.5977 61.3134 40.4363C61.5515 40.2689 61.7185 40.0477 61.8137 39.7726H62.6901C62.5587 40.245 62.2965 40.6306 61.9034 40.9296C61.5099 41.2226 61.0211 41.3691 60.437 41.3691C59.9723 41.3691 59.5547 41.2644 59.1852 41.0552C58.8217 40.8459 58.5355 40.5499 58.3269 40.1672C58.1184 39.7786 58.0143 39.3301 58.0143 38.8219C58.0143 38.3136 58.1156 37.8682 58.3181 37.4855C58.5207 37.1028 58.8037 36.8098 59.1676 36.6065C59.5371 36.3972 59.9603 36.2926 60.437 36.2926C60.9018 36.2926 61.3134 36.3942 61.6708 36.5976C62.0283 36.8009 62.3025 37.0819 62.4935 37.4406C62.6901 37.7934 62.7886 38.194 62.7886 38.6425ZM61.9478 38.4721C61.9478 38.1611 61.8794 37.8951 61.7425 37.6739C61.6052 37.4466 61.4174 37.2762 61.1793 37.1626C60.9467 37.043 60.6872 36.9832 60.4014 36.9832C59.9899 36.9832 59.6384 37.1148 59.3461 37.3779C59.0604 37.641 58.8962 38.0057 58.8546 38.4721H61.9478ZM64.7655 37.1716C64.9084 36.8905 65.1109 36.6723 65.3731 36.5168C65.6414 36.3614 65.9665 36.2836 66.348 36.2836V37.1267H66.1334C65.2215 37.1267 64.7655 37.623 64.7655 38.6156V41.2884H63.9516V36.3733H64.7655V37.1716ZM67.0726 38.8129C67.0726 38.3106 67.1739 37.8712 67.3764 37.4945C67.579 37.1118 67.856 36.8158 68.2079 36.6065C68.5654 36.3972 68.9617 36.2926 69.3968 36.2926C69.826 36.2926 70.1987 36.3853 70.5146 36.5707C70.8304 36.756 71.0658 36.9892 71.2207 37.2702V36.3733H72.0434V41.2884H71.2207V40.3735C71.0598 40.6606 70.8184 40.8997 70.4965 41.0911C70.1807 41.2764 69.8112 41.3691 69.3881 41.3691C68.9529 41.3691 68.5594 41.2615 68.2079 41.0462C67.856 40.8309 67.579 40.529 67.3764 40.1403C67.1739 39.7517 67.0726 39.3092 67.0726 38.8129ZM71.2207 38.8219C71.2207 38.4511 71.1463 38.1283 70.9974 37.8532C70.8485 37.5781 70.6454 37.3689 70.3892 37.2254C70.1391 37.0759 69.8621 37.0012 69.5578 37.0012C69.254 37.0012 68.9769 37.0729 68.7263 37.2164C68.4761 37.3599 68.2763 37.5692 68.1274 37.8442C67.9785 38.1193 67.9041 38.4422 67.9041 38.8129C67.9041 39.1896 67.9785 39.5185 68.1274 39.7995C68.2763 40.0746 68.4761 40.2868 68.7263 40.4363C68.9769 40.5798 69.254 40.6515 69.5578 40.6515C69.8621 40.6515 70.1391 40.5798 70.3892 40.4363C70.6454 40.2868 70.8485 40.0746 70.9974 39.7995C71.1463 39.5185 71.2207 39.1926 71.2207 38.8219ZM74.4999 37.046V39.943C74.4999 40.1822 74.5508 40.3526 74.652 40.4542C74.7533 40.5499 74.929 40.5977 75.1797 40.5977H75.7785V41.2884H75.0456C74.5924 41.2884 74.2525 41.1837 74.0263 40.9744C73.7997 40.7652 73.6864 40.4214 73.6864 39.943V37.046H73.0515V36.3733H73.6864V35.1356H74.4999V36.3733H75.7785V37.046H74.4999ZM81.3241 38.6425C81.3241 38.798 81.3149 38.9624 81.2973 39.1358H77.3814C77.411 39.6201 77.5751 39.9998 77.8729 40.2748C78.1768 40.5439 78.5435 40.6785 78.9726 40.6785C79.3241 40.6785 79.6163 40.5977 79.8489 40.4363C80.0871 40.2689 80.254 40.0477 80.3493 39.7726H81.2256C81.0943 40.245 80.8321 40.6306 80.439 40.9296C80.0455 41.2226 79.5567 41.3691 78.9726 41.3691C78.5079 41.3691 78.0903 41.2644 77.7208 41.0552C77.3573 40.8459 77.0711 40.5499 76.8625 40.1672C76.6539 39.7786 76.5499 39.3301 76.5499 38.8219C76.5499 38.3136 76.6512 37.8682 76.8537 37.4855C77.0563 37.1028 77.3393 36.8098 77.7032 36.6065C78.0727 36.3972 78.4958 36.2926 78.9726 36.2926C79.4374 36.2926 79.8489 36.3942 80.2064 36.5976C80.5639 36.8009 80.8381 37.0819 81.0291 37.4406C81.2256 37.7934 81.3241 38.194 81.3241 38.6425ZM80.4834 38.4721C80.4834 38.1611 80.415 37.8951 80.2781 37.6739C80.1407 37.4466 79.953 37.2762 79.7148 37.1626C79.4822 37.043 79.2228 36.9832 78.937 36.9832C78.5254 36.9832 78.174 37.1148 77.8817 37.3779C77.5959 37.641 77.4318 38.0057 77.3901 38.4721H80.4834ZM85.7737 37.2792C85.9347 36.9982 86.1733 36.765 86.4891 36.5796C86.811 36.3883 87.1833 36.2926 87.6069 36.2926C88.0416 36.2926 88.4351 36.3972 88.787 36.6065C89.1445 36.8158 89.4247 37.1118 89.6273 37.4945C89.8298 37.8712 89.9311 38.3106 89.9311 38.8129C89.9311 39.3092 89.8298 39.7517 89.6273 40.1403C89.4247 40.529 89.1445 40.8309 88.787 41.0462C88.4351 41.2615 88.0416 41.3691 87.6069 41.3691C87.1893 41.3691 86.8198 41.2764 86.4979 41.0911C86.1821 40.8997 85.9407 40.6635 85.7737 40.3825V43.6203H84.9603V36.3733H85.7737V37.2792ZM89.0996 38.8129C89.0996 38.4422 89.0252 38.1193 88.8763 37.8442C88.7274 37.5692 88.5243 37.3599 88.2682 37.2164C88.018 37.0729 87.741 37.0012 87.4367 37.0012C87.1389 37.0012 86.8614 37.0759 86.6052 37.2254C86.355 37.3689 86.1525 37.5812 85.9976 37.8622C85.8482 38.1373 85.7737 38.4571 85.7737 38.8219C85.7737 39.1926 85.8482 39.5185 85.9976 39.7995C86.1525 40.0746 86.355 40.2868 86.6052 40.4363C86.8614 40.5798 87.1389 40.6515 87.4367 40.6515C87.741 40.6515 88.018 40.5798 88.2682 40.4363C88.5243 40.2868 88.7274 40.0746 88.8763 39.7995C89.0252 39.5185 89.0996 39.1896 89.0996 38.8129ZM90.7875 38.8129C90.7875 38.3106 90.8888 37.8712 91.0914 37.4945C91.2944 37.1118 91.5714 36.8158 91.9228 36.6065C92.2808 36.3972 92.6771 36.2926 93.1122 36.2926C93.5414 36.2926 93.9136 36.3853 94.2295 36.5707C94.5453 36.756 94.7812 36.9892 94.9361 37.2702V36.3733H95.7583V41.2884H94.9361V40.3735C94.7752 40.6606 94.5338 40.8997 94.2119 41.0911C93.8961 41.2764 93.5261 41.3691 93.103 41.3691C92.6678 41.3691 92.2747 41.2615 91.9228 41.0462C91.5714 40.8309 91.2944 40.529 91.0914 40.1403C90.8888 39.7517 90.7875 39.3092 90.7875 38.8129ZM94.9361 38.8219C94.9361 38.4511 94.8616 38.1283 94.7123 37.8532C94.5634 37.5781 94.3608 37.3689 94.1046 37.2254C93.854 37.0759 93.577 37.0012 93.2732 37.0012C92.9689 37.0012 92.6919 37.0729 92.4417 37.2164C92.191 37.3599 91.9917 37.5692 91.8424 37.8442C91.6935 38.1193 91.619 38.4422 91.619 38.8129C91.619 39.1896 91.6935 39.5185 91.8424 39.7995C91.9917 40.0746 92.191 40.2868 92.4417 40.4363C92.6919 40.5798 92.9689 40.6515 93.2732 40.6515C93.577 40.6515 93.854 40.5798 94.1046 40.4363C94.3608 40.2868 94.5634 40.0746 94.7123 39.7995C94.8616 39.5185 94.9361 39.1926 94.9361 38.8219ZM98.2153 37.046V39.943C98.2153 40.1822 98.2657 40.3526 98.3669 40.4542C98.4687 40.5499 98.6444 40.5977 98.8946 40.5977H99.4934V41.2884H98.7605C98.3078 41.2884 97.9679 41.1837 97.7413 40.9744C97.5147 40.7652 97.4014 40.4214 97.4014 39.943V37.046H96.7669V36.3733H97.4014V35.1356H98.2153V36.3733H99.4934V37.046H98.2153ZM100.989 35.5751C100.834 35.5751 100.703 35.5213 100.595 35.4136C100.488 35.306 100.435 35.1744 100.435 35.019C100.435 34.8635 100.488 34.732 100.595 34.6243C100.703 34.5167 100.834 34.4629 100.989 34.4629C101.138 34.4629 101.263 34.5167 101.364 34.6243C101.472 34.732 101.525 34.8635 101.525 35.019C101.525 35.1744 101.472 35.306 101.364 35.4136C101.263 35.5213 101.138 35.5751 100.989 35.5751ZM101.383 36.3733V41.2884H100.569V36.3733H101.383ZM107.329 38.6425C107.329 38.798 107.32 38.9624 107.302 39.1358H103.386C103.416 39.6201 103.58 39.9998 103.878 40.2748C104.182 40.5439 104.548 40.6785 104.978 40.6785C105.329 40.6785 105.621 40.5977 105.853 40.4363C106.092 40.2689 106.259 40.0477 106.354 39.7726H107.231C107.099 40.245 106.837 40.6306 106.443 40.9296C106.05 41.2226 105.562 41.3691 104.978 41.3691C104.512 41.3691 104.095 41.2644 103.726 41.0552C103.362 40.8459 103.076 40.5499 102.867 40.1672C102.659 39.7786 102.554 39.3301 102.554 38.8219C102.554 38.3136 102.656 37.8682 102.859 37.4855C103.061 37.1028 103.344 36.8098 103.708 36.6065C104.077 36.3972 104.5 36.2926 104.978 36.2926C105.442 36.2926 105.853 36.3942 106.211 36.5976C106.569 36.8009 106.843 37.0819 107.034 37.4406C107.231 37.7934 107.329 38.194 107.329 38.6425ZM106.488 38.4721C106.488 38.1611 106.42 37.8951 106.283 37.6739C106.146 37.4466 105.958 37.2762 105.719 37.1626C105.487 37.043 105.228 36.9832 104.941 36.9832C104.53 36.9832 104.178 37.1148 103.887 37.3779C103.6 37.641 103.437 38.0057 103.395 38.4721H106.488ZM110.879 36.2836C111.475 36.2836 111.958 36.466 112.328 36.8307C112.697 37.1895 112.882 37.7097 112.882 38.3913V41.2884H112.077V38.508C112.077 38.0177 111.955 37.6439 111.711 37.3868C111.466 37.1237 111.133 36.9922 110.709 36.9922C110.28 36.9922 109.937 37.1267 109.681 37.3958C109.431 37.6648 109.306 38.0565 109.306 38.5707V41.2884H108.492V36.3733H109.306V37.0729C109.466 36.8218 109.684 36.6274 109.958 36.4899C110.238 36.3524 110.545 36.2836 110.879 36.2836ZM115.293 37.046V39.943C115.293 40.1822 115.343 40.3526 115.444 40.4542C115.546 40.5499 115.722 40.5977 115.972 40.5977H116.571V41.2884H115.838C115.385 41.2884 115.045 41.1837 114.819 40.9744C114.592 40.7652 114.479 40.4214 114.479 39.943V37.046H113.844V36.3733H114.479V35.1356H115.293V36.3733H116.571V37.046H115.293ZM122.551 36.2836C122.921 36.2836 123.255 36.3643 123.552 36.5258C123.85 36.6813 124.083 36.9174 124.25 37.2343C124.423 37.5512 124.509 37.9369 124.509 38.3913V41.2884H123.705V38.508C123.705 38.0177 123.582 37.6439 123.338 37.3868C123.094 37.1237 122.76 36.9922 122.337 36.9922C121.908 36.9922 121.565 37.1267 121.308 37.3958C121.058 37.6648 120.933 38.0565 120.933 38.5707V41.2884H120.119V34.6512H120.933V37.0729C121.094 36.8218 121.314 36.6274 121.594 36.4899C121.881 36.3524 122.199 36.2836 122.551 36.2836ZM130.397 38.6425C130.397 38.798 130.389 38.9624 130.371 39.1358H126.455C126.485 39.6201 126.648 39.9998 126.947 40.2748C127.251 40.5439 127.617 40.6785 128.046 40.6785C128.398 40.6785 128.69 40.5977 128.922 40.4363C129.161 40.2689 129.328 40.0477 129.423 39.7726H130.299C130.168 40.245 129.906 40.6306 129.512 40.9296C129.119 41.2226 128.631 41.3691 128.046 41.3691C127.581 41.3691 127.164 41.2644 126.795 41.0552C126.431 40.8459 126.145 40.5499 125.936 40.1672C125.728 39.7786 125.623 39.3301 125.623 38.8219C125.623 38.3136 125.725 37.8682 125.928 37.4855C126.13 37.1028 126.413 36.8098 126.777 36.6065C127.147 36.3972 127.57 36.2926 128.046 36.2926C128.511 36.2926 128.922 36.3942 129.28 36.5976C129.638 36.8009 129.912 37.0819 130.102 37.4406C130.299 37.7934 130.397 38.194 130.397 38.6425ZM129.557 38.4721C129.557 38.1611 129.489 37.8951 129.351 37.6739C129.215 37.4466 129.027 37.2762 128.788 37.1626C128.556 37.043 128.297 36.9832 128.01 36.9832C127.599 36.9832 127.248 37.1148 126.956 37.3779C126.669 37.641 126.506 38.0057 126.464 38.4721H129.557ZM131.257 38.8129C131.257 38.3106 131.358 37.8712 131.561 37.4945C131.764 37.1118 132.041 36.8158 132.392 36.6065C132.75 36.3972 133.147 36.2926 133.581 36.2926C134.011 36.2926 134.383 36.3853 134.699 36.5707C135.015 36.756 135.25 36.9892 135.405 37.2702V36.3733H136.228V41.2884H135.405V40.3735C135.244 40.6606 135.003 40.8997 134.681 41.0911C134.365 41.2764 133.996 41.3691 133.573 41.3691C133.137 41.3691 132.744 41.2615 132.392 41.0462C132.041 40.8309 131.764 40.529 131.561 40.1403C131.358 39.7517 131.257 39.3092 131.257 38.8129ZM135.405 38.8219C135.405 38.4511 135.331 38.1283 135.182 37.8532C135.033 37.5781 134.83 37.3689 134.574 37.2254C134.324 37.0759 134.047 37.0012 133.742 37.0012C133.438 37.0012 133.161 37.0729 132.911 37.2164C132.661 37.3599 132.461 37.5692 132.312 37.8442C132.163 38.1193 132.089 38.4422 132.089 38.8129C132.089 39.1896 132.163 39.5185 132.312 39.7995C132.461 40.0746 132.661 40.2868 132.911 40.4363C133.161 40.5798 133.438 40.6515 133.742 40.6515C134.047 40.6515 134.324 40.5798 134.574 40.4363C134.83 40.2868 135.033 40.0746 135.182 39.7995C135.331 39.5185 135.405 39.1926 135.405 38.8219ZM138.506 34.6512V41.2884H137.692V34.6512H138.506ZM140.974 37.046V39.943C140.974 40.1822 141.025 40.3526 141.126 40.4542C141.227 40.5499 141.404 40.5977 141.654 40.5977H142.253V41.2884H141.52C141.066 41.2884 140.727 41.1837 140.5 40.9744C140.274 40.7652 140.161 40.4214 140.161 39.943V37.046H139.526V36.3733H140.161V35.1356H140.974V36.3733H142.253V37.046H140.974ZM145.76 36.2836C146.129 36.2836 146.463 36.3643 146.761 36.5258C147.059 36.6813 147.291 36.9174 147.458 37.2343C147.631 37.5512 147.718 37.9369 147.718 38.3913V41.2884H146.913V38.508C146.913 38.0177 146.791 37.6439 146.546 37.3868C146.302 37.1237 145.968 36.9922 145.545 36.9922C145.116 36.9922 144.773 37.1267 144.517 37.3958C144.267 37.6648 144.142 38.0565 144.142 38.5707V41.2884H143.328V34.6512H144.142V37.0729C144.303 36.8218 144.523 36.6274 144.803 36.4899C145.089 36.3524 145.408 36.2836 145.76 36.2836ZM153.746 41.3691C153.287 41.3691 152.87 41.2644 152.494 41.0552C152.125 40.8459 151.833 40.5499 151.618 40.1672C151.409 39.7786 151.305 39.3301 151.305 38.8219C151.305 38.3196 151.412 37.8771 151.627 37.4945C151.847 37.1058 152.146 36.8098 152.521 36.6065C152.897 36.3972 153.317 36.2926 153.782 36.2926C154.247 36.2926 154.667 36.3972 155.042 36.6065C155.418 36.8098 155.713 37.1028 155.927 37.4855C156.148 37.8682 156.258 38.3136 156.258 38.8219C156.258 39.3301 156.145 39.7786 155.918 40.1672C155.698 40.5499 155.397 40.8459 155.016 41.0552C154.634 41.2644 154.211 41.3691 153.746 41.3691ZM153.746 40.6515C154.038 40.6515 154.312 40.5828 154.568 40.4453C154.825 40.3077 155.03 40.1015 155.185 39.8264C155.346 39.5514 155.427 39.2165 155.427 38.8219C155.427 38.4272 155.349 38.0924 155.194 37.8173C155.039 37.5423 154.837 37.339 154.586 37.2074C154.336 37.0699 154.065 37.0012 153.773 37.0012C153.475 37.0012 153.2 37.0699 152.95 37.2074C152.706 37.339 152.509 37.5423 152.36 37.8173C152.211 38.0924 152.136 38.4272 152.136 38.8219C152.136 39.2225 152.208 39.5603 152.351 39.8354C152.5 40.1104 152.697 40.3167 152.941 40.4542C153.186 40.5858 153.454 40.6515 153.746 40.6515ZM161.763 36.3733V41.2884H160.949V40.5619C160.794 40.813 160.576 41.0103 160.296 41.1538C160.022 41.2913 159.718 41.3601 159.384 41.3601C159.003 41.3601 158.66 41.2824 158.356 41.1269C158.052 40.9655 157.811 40.7263 157.632 40.4094C157.459 40.0925 157.373 39.7068 157.373 39.2524V36.3733H158.177V39.1447C158.177 39.6291 158.299 40.0028 158.544 40.2659C158.788 40.523 159.122 40.6515 159.545 40.6515C159.98 40.6515 160.323 40.517 160.573 40.2479C160.824 39.9789 160.949 39.5872 160.949 39.073V36.3733H161.763ZM164.218 37.046V39.943C164.218 40.1822 164.269 40.3526 164.37 40.4542C164.471 40.5499 164.647 40.5977 164.897 40.5977H165.496V41.2884H164.763C164.31 41.2884 163.971 41.1837 163.744 40.9744C163.518 40.7652 163.404 40.4214 163.404 39.943V37.046H162.77V36.3733H163.404V35.1356H164.218V36.3733H165.496V37.046H164.218ZM166.268 38.8219C166.268 38.3136 166.369 37.8712 166.572 37.4945C166.774 37.1118 167.054 36.8158 167.412 36.6065C167.776 36.3972 168.19 36.2926 168.655 36.2926C169.257 36.2926 169.751 36.4391 170.139 36.7321C170.532 37.0251 170.792 37.4317 170.917 37.9519H170.041C169.957 37.6529 169.793 37.4167 169.549 37.2433C169.311 37.0699 169.012 36.9832 168.655 36.9832C168.19 36.9832 167.815 37.1447 167.528 37.4675C167.242 37.7844 167.099 38.2359 167.099 38.8219C167.099 39.4138 167.242 39.8712 167.528 40.1941C167.815 40.517 168.19 40.6785 168.655 40.6785C169.012 40.6785 169.311 40.5948 169.549 40.4273C169.787 40.2599 169.951 40.0208 170.041 39.7098H170.917C170.786 40.2121 170.524 40.6157 170.13 40.9206C169.736 41.2196 169.245 41.3691 168.655 41.3691C168.19 41.3691 167.776 41.2644 167.412 41.0552C167.054 40.8459 166.774 40.5499 166.572 40.1672C166.369 39.7845 166.268 39.3361 166.268 38.8219ZM174.229 41.3691C173.769 41.3691 173.352 41.2644 172.977 41.0552C172.607 40.8459 172.315 40.5499 172.1 40.1672C171.892 39.7786 171.788 39.3301 171.788 38.8219C171.788 38.3196 171.895 37.8771 172.11 37.4945C172.33 37.1058 172.628 36.8098 173.004 36.6065C173.379 36.3972 173.799 36.2926 174.264 36.2926C174.729 36.2926 175.149 36.3972 175.525 36.6065C175.9 36.8098 176.195 37.1028 176.41 37.4855C176.631 37.8682 176.741 38.3136 176.741 38.8219C176.741 39.3301 176.627 39.7786 176.401 40.1672C176.181 40.5499 175.88 40.8459 175.498 41.0552C175.116 41.2644 174.693 41.3691 174.229 41.3691ZM174.229 40.6515C174.52 40.6515 174.795 40.5828 175.051 40.4453C175.307 40.3077 175.513 40.1015 175.668 39.8264C175.829 39.5514 175.909 39.2165 175.909 38.8219C175.909 38.4272 175.832 38.0924 175.677 37.8173C175.522 37.5423 175.319 37.339 175.069 37.2074C174.819 37.0699 174.547 37.0012 174.255 37.0012C173.957 37.0012 173.683 37.0699 173.433 37.2074C173.189 37.339 172.992 37.5423 172.843 37.8173C172.694 38.0924 172.619 38.4272 172.619 38.8219C172.619 39.2225 172.691 39.5603 172.834 39.8354C172.983 40.1104 173.179 40.3167 173.424 40.4542C173.668 40.5858 173.936 40.6515 174.229 40.6515ZM183.792 36.2836C184.173 36.2836 184.513 36.3643 184.811 36.5258C185.109 36.6813 185.344 36.9174 185.517 37.2343C185.69 37.5512 185.777 37.9369 185.777 38.3913V41.2884H184.972V38.508C184.972 38.0177 184.849 37.6439 184.605 37.3868C184.367 37.1237 184.042 36.9922 183.631 36.9922C183.207 36.9922 182.871 37.1297 182.621 37.4048C182.37 37.6738 182.245 38.0655 182.245 38.5797V41.2884H181.44V38.508C181.44 38.0177 181.318 37.6439 181.074 37.3868C180.835 37.1237 180.51 36.9922 180.099 36.9922C179.676 36.9922 179.339 37.1297 179.089 37.4048C178.839 37.6738 178.713 38.0655 178.713 38.5797V41.2884H177.9V36.3733H178.713V37.0819C178.874 36.8247 179.089 36.6274 179.357 36.4899C179.631 36.3524 179.932 36.2836 180.26 36.2836C180.671 36.2836 181.035 36.3763 181.351 36.5617C181.667 36.747 181.902 37.0191 182.057 37.3779C182.194 37.031 182.421 36.762 182.737 36.5707C183.052 36.3793 183.404 36.2836 183.792 36.2836ZM191.671 38.6425C191.671 38.798 191.662 38.9624 191.644 39.1358H187.728C187.758 39.6201 187.921 39.9998 188.22 40.2748C188.524 40.5439 188.89 40.6785 189.319 40.6785C189.671 40.6785 189.963 40.5977 190.196 40.4363C190.434 40.2689 190.601 40.0477 190.696 39.7726H191.572C191.441 40.245 191.179 40.6306 190.786 40.9296C190.392 41.2226 189.904 41.3691 189.319 41.3691C188.855 41.3691 188.437 41.2644 188.068 41.0552C187.704 40.8459 187.418 40.5499 187.209 40.1672C187.001 39.7786 186.897 39.3301 186.897 38.8219C186.897 38.3136 186.998 37.8682 187.201 37.4855C187.403 37.1028 187.686 36.8098 188.05 36.6065C188.42 36.3972 188.843 36.2926 189.319 36.2926C189.784 36.2926 190.196 36.3942 190.553 36.5976C190.911 36.8009 191.185 37.0819 191.376 37.4406C191.572 37.7934 191.671 38.194 191.671 38.6425ZM190.83 38.4721C190.83 38.1611 190.762 37.8951 190.625 37.6739C190.488 37.4466 190.3 37.2762 190.062 37.1626C189.829 37.043 189.57 36.9832 189.284 36.9832C188.872 36.9832 188.521 37.1148 188.229 37.3779C187.943 37.641 187.779 38.0057 187.737 38.4721H190.83ZM194.569 41.3691C194.193 41.3691 193.856 41.3063 193.558 41.1807C193.26 41.0492 193.025 40.8698 192.852 40.6426C192.679 40.4094 192.584 40.1433 192.566 39.8443H193.406C193.43 40.0895 193.543 40.2898 193.746 40.4453C193.954 40.6008 194.226 40.6785 194.559 40.6785C194.87 40.6785 195.114 40.6097 195.293 40.4722C195.471 40.3346 195.561 40.1612 195.561 39.952C195.561 39.7367 195.466 39.5783 195.275 39.4766C195.084 39.369 194.789 39.2643 194.39 39.1627C194.026 39.067 193.728 38.9714 193.496 38.8757C193.269 38.774 193.073 38.6275 192.906 38.4362C192.745 38.2389 192.664 37.9818 192.664 37.6648C192.664 37.4137 192.739 37.1835 192.888 36.9743C193.037 36.765 193.248 36.6005 193.523 36.4809C193.797 36.3554 194.109 36.2926 194.461 36.2926C195.004 36.2926 195.442 36.4301 195.776 36.7052C196.109 36.9802 196.288 37.3569 196.312 37.8353H195.498C195.481 37.5781 195.376 37.3719 195.186 37.2164C195.001 37.061 194.75 36.9832 194.435 36.9832C194.142 36.9832 193.91 37.046 193.737 37.1716C193.564 37.2971 193.478 37.4616 193.478 37.6648C193.478 37.8263 193.529 37.9608 193.63 38.0685C193.737 38.1701 193.868 38.2538 194.023 38.3196C194.184 38.3794 194.404 38.4482 194.685 38.5259C195.037 38.6216 195.322 38.7172 195.543 38.8129C195.764 38.9026 195.951 39.0401 196.106 39.2255C196.267 39.4108 196.351 39.653 196.356 39.952C196.356 40.221 196.282 40.4632 196.133 40.6785C195.984 40.8937 195.772 41.0642 195.498 41.1897C195.23 41.3093 194.92 41.3691 194.569 41.3691Z" fill="black"></path></svg>